,
Brought to you by  http://www.scenetime.com/signup.php
 
 Hottest scene tracker on the net !!!   
 
No fake torrents from scenebalance 
shame on those who comment fake before downloading my torrents

    seed back for speed


 



...................................NFO:.................................................General 
Complete name : The Encounter 2010 DVDRip Xvid AC3-Freebee.avi 
Format : AVI 
Format/Info : Audio Video Interleave 
File size : 1.41 GiB 
Duration : 1h 30mn 
Overall bit rate : 2 248 Kbps 

Video 
ID : 0 
Format : MPEG-4 Visual 
Format profile : Advanced Simple@L5 
Format settings, BVOP : 2 
Format settings, QPel : No 
Format settings, GMC : No warppoints 
Format settings, Matrix : Default (H.263) 
Codec ID : XVID 
Codec ID/Hint : XviD 
Duration : 1h 30mn 
Bit rate : 1 791 Kbps 
Width : 720 pixels 
Height : 400 pixels 
Display aspect ratio : 16:9 
Frame rate : 23.976 fps 
Color space : YUV 
Chroma subsampling : 4:2:0 
Bit depth : 8 bits 
Scan type : Progressive 
Compression mode : Lossy 
Bits/(Pixel*Frame) : 0.259 
Stream size : 1.13 GiB (80%) 
Writing library : XviD 63 

Audio 
ID : 1 
Format : AC-3 
Format/Info : Audio Coding 3 
Mode extension : CM (complete main) 
Codec ID : 2000 
Duration : 1h 30mn 
Bit rate mode : Constant 
Bit rate : 448 Kbps 
Channel(s) : 6 channels 
Channel positions : Front: L C R, Side: L R, LFE 
Sampling rate : 48.0 KHz 
Bit depth : 16 bits 
Compression mode : Lossy 
Stream size : 289 MiB (20%) 
Alignment : Split accross interleaves 
Interleave, duration : 42 ms (1.00 video frame) 
Interleave, preload duration : 500 ms 


   
              Language.............: English
              Subtitle.............: English
              Imdb-Rating..........: 8.5/10
              Imdb.................: http://www.imdb.com/title/tt1663680/
              Video-Source.........: My Own
              Audio-Source.........: My Own
              Encoder..............: Freebee269
              Plot.................: Stranded in the middle of nowhere, five
 strangers find themselves marooned in a deserted roadside diner. An arrogant
 businessman, (Steve "Sting" Borden), a lonely single woman, (Jaci Velasquez),
 a couple on the verge of divorce, and a youthful runaway all come face to
 face with a diner owner who serves them more than temporal nourishment. This
 genial host is a certain Nazarene, (Bruce Marchiano) who knows all of their
 secrets and possesses the answers to all of their problems if only they
 would trust him. It is a miraculous Encounter that will leave them all
 changed.

 The Encounter is an inspirational and intriguing faith-filled family drama
 about 5 people who are brought faced to face with Jesus and encouraged to
 examine the true condition of their lives. 
   
                    
                    Sample Included
                    


                    
                    Greets: All P2P Groups!
                    

 
                                          
                           Respects                  
                    
                     SANTi, TOXiCiNK, LKRG 
                    NPW, FLAWL3SS, BDK, CM8
                      IMAGiNE, ViSiON, Rx  
                          Legion, *THC*